# xmcd
# Copyright (C) 1995-1998 Ti Kan
#
# Track frame offsets:
#       182
#       16690
#       31915
#       48890
#       62180
#       75245
#       88730
#       98252
#       111880
#       120720
#       138190
#       148470
#       160887
#
# Disc length: 2409 seconds
#
# Revision: 0
# Processed by: cddbd v1.5.2PL0 Copyright (c) Steve Scherf et al.
# Submitted via: CD-Import v1.0
#
DISCID=9c09670d
DTITLE=Howlin' Wolf - The London Howlin' Wolf Sessions
DYEAR=1900
DGENRE=
TTITLE0=Rockin' Daddy
TTITLE1=I Ain't Superstitious
TTITLE2=Sittin' On Top Of The World
TTITLE3=Worried About My Baby
TTITLE4=What A Woman!
TTITLE5=Poor Boy
TTITLE6=Built For Comfort
TTITLE7=Who's Been Talking?
TTITLE8=The Red Rooster (False Start)
TTITLE9=The Red Rooster
TTITLE10=Do The Do
TTITLE11=Highway 49
TTITLE12=Wang-Dang-Doodle
EXTD=
EXTT0=
EXTT1=
EXTT2=
EXTT3=
EXTT4=
EXTT5=
EXTT6=
EXTT7=
EXTT8=
EXTT9=
EXTT10=
EXTT11=
EXTT12=
PLAYORDER=
